<svg width="25" height="25" viewBox="0 0 25 25" fill="none" xmlns="http://www.w3.org/2000/svg">
<path d="M8.62988 6.86788C8.20988 6.86788 7.87988 6.52788 7.87988 6.11788V3.32788C7.87988 2.91788 8.20988 2.57788 8.62988 2.57788C9.04988 2.57788 9.37988 2.91788 9.37988 3.32788V6.10788C9.37988 6.52788 9.04988 6.86788 8.62988 6.86788Z" fill="#292D32" fill-opacity="0.7"/>
<path d="M16.0498 6.86788C15.6298 6.86788 15.2998 6.52788 15.2998 6.11788V3.32788C15.2998 2.90788 15.6398 2.57788 16.0498 2.57788C16.4698 2.57788 16.7998 2.91788 16.7998 3.32788V6.10788C16.7998 6.52788 16.4698 6.86788 16.0498 6.86788Z" fill="#292D32" fill-opacity="0.7"/>
<path d="M19.9098 5.07788C19.2498 4.58788 18.2998 5.05788 18.2998 5.88788V5.98788C18.2998 7.15788 17.4598 8.23788 16.2898 8.35788C14.9398 8.49788 13.7998 7.43788 13.7998 6.11788V5.07788C13.7998 4.52788 13.3498 4.07788 12.7998 4.07788H11.8798C11.3298 4.07788 10.8798 4.52788 10.8798 5.07788V6.11788C10.8798 6.90788 10.4698 7.60788 9.84984 7.99788C9.75984 8.05788 9.65984 8.10788 9.55984 8.15788C9.46984 8.20788 9.36984 8.24788 9.25984 8.27788C9.13984 8.31788 9.00984 8.34788 8.86984 8.35788C8.70984 8.37788 8.54984 8.37788 8.38984 8.35788C8.24984 8.34788 8.11984 8.31788 7.99984 8.27788C7.89984 8.24788 7.79984 8.20788 7.69984 8.15788C7.59984 8.10788 7.49984 8.05788 7.40984 7.99788C6.77984 7.55788 6.37984 6.79788 6.37984 5.98788V5.88788C6.37984 5.11788 5.55984 4.65788 4.90984 4.98788C4.89984 4.99788 4.88984 4.99788 4.87984 5.00788C4.83984 5.02788 4.80984 5.04788 4.76984 5.07788C4.73984 5.10788 4.69984 5.12788 4.66984 5.15788C4.38984 5.37788 4.13984 5.62788 3.92984 5.89788C3.81984 6.01788 3.72984 6.14788 3.64984 6.27788C3.63984 6.28788 3.62984 6.29788 3.61984 6.31788C3.52984 6.44788 3.44984 6.59788 3.37984 6.73788C3.35984 6.75788 3.34984 6.76788 3.34984 6.78788C3.28984 6.90788 3.22984 7.02788 3.18984 7.15788C3.15984 7.20788 3.14984 7.24788 3.12984 7.29788C3.06984 7.44788 3.02984 7.59788 2.98984 7.74788C2.94984 7.88788 2.91984 8.03788 2.89984 8.18788C2.87984 8.29788 2.86984 8.40788 2.85984 8.52788C2.84984 8.66788 2.83984 8.80788 2.83984 8.94788V17.7079C2.83984 20.3979 5.01984 22.5779 7.70984 22.5779H16.9698C19.6598 22.5779 21.8398 20.3979 21.8398 17.7079V8.94788C21.8398 7.35788 21.0798 5.96788 19.9098 5.07788ZM12.3398 17.9979H7.69984C7.28984 17.9979 6.94984 17.6579 6.94984 17.2479C6.94984 16.8279 7.28984 16.4879 7.69984 16.4879H12.3398C12.7598 16.4879 13.0898 16.8279 13.0898 17.2479C13.0898 17.6579 12.7598 17.9979 12.3398 17.9979ZM15.1198 14.2879H7.69984C7.28984 14.2879 6.94984 13.9479 6.94984 13.5379C6.94984 13.1179 7.28984 12.7779 7.69984 12.7779H15.1198C15.5398 12.7779 15.8798 13.1179 15.8798 13.5379C15.8798 13.9479 15.5398 14.2879 15.1198 14.2879Z" fill="#292D32" fill-opacity="0.7"/>
</svg>
